{
    "asset" : {
        "generator" : "Khronos glTF Blender I/O v1.5.17",
        "version" : "2.0"
    },
    "scene" : 0,
    "scenes" : [
        {
            "name" : "Scene",
            "nodes" : [
                0
            ]
        }
    ],
    "nodes" : [
        {
            "mesh" : 0,
            "name" : "bomb_teamYellow",
            "rotation" : [
                0.7071068286895752,
                0,
                0,
                0.7071067094802856
            ]
        }
    ],
    "materials" : [
        {
            "doubleSided" : true,
            "name" : "Black.022",
            "pbrMetallicRoughness" : {
                "baseColorFactor" : [
                    0.019794002175331116,
                    0.03207586705684662,
                    0.037408243864774704,
                    1
                ],
                "metallicFactor" : 0,
                "roughnessFactor" : 0.20000000298023224
            }
        },
        {
            "doubleSided" : true,
            "name" : "Beige.006",
            "pbrMetallicRoughness" : {
                "baseColorFactor" : [
                    0.7029160857200623,
                    0.4253237545490265,
                    0.20689357817173004,
                    1
                ],
                "metallicFactor" : 0,
                "roughnessFactor" : 0.5
            }
        },
        {
            "doubleSided" : true,
            "name" : "Yellow.015",
            "pbrMetallicRoughness" : {
                "baseColorFactor" : [
                    1,
                    0.5052202939987183,
                    0.017695415765047073,
                    1
                ],
                "metallicFactor" : 0,
                "roughnessFactor" : 0.20000000298023224
            }
        }
    ],
    "meshes" : [
        {
            "name" : "Sphere.008",
            "primitives" : [
                {
                    "attributes" : {
                        "POSITION" : 0,
                        "NORMAL" : 1,
                        "TEXCOORD_0" : 2
                    },
                    "indices" : 3,
                    "material" : 0
                },
                {
                    "attributes" : {
                        "POSITION" : 4,
                        "NORMAL" : 5,
                        "TEXCOORD_0" : 6
                    },
                    "indices" : 7,
                    "material" : 1
                },
                {
                    "attributes" : {
                        "POSITION" : 8,
                        "NORMAL" : 9,
                        "TEXCOORD_0" : 10
                    },
                    "indices" : 11,
                    "material" : 2
                }
            ]
        }
    ],
    "accessors" : [
        {
            "bufferView" : 0,
            "componentType" : 5126,
            "count" : 455,
            "max" : [
                0.4829626679420471,
                0.4829624593257904,
                0.4999999403953552
            ],
            "min" : [
                -0.4829627275466919,
                -0.4829629361629486,
                -0.582754909992218
            ],
            "type" : "VEC3"
        },
        {
            "bufferView" : 1,
            "componentType" : 5126,
            "count" : 455,
            "type" : "VEC3"
        },
        {
            "bufferView" : 2,
            "componentType" : 5126,
            "count" : 455,
            "type" : "VEC2"
        },
        {
            "bufferView" : 3,
            "componentType" : 5123,
            "count" : 1656,
            "type" : "SCALAR"
        },
        {
            "bufferView" : 4,
            "componentType" : 5126,
            "count" : 231,
            "max" : [
                0.12376353144645691,
                0.06450017541646957,
                -0.5306296944618225
            ],
            "min" : [
                -0.0687265396118164,
                -0.06450054049491882,
                -0.8149067163467407
            ],
            "type" : "VEC3"
        },
        {
            "bufferView" : 5,
            "componentType" : 5126,
            "count" : 231,
            "type" : "VEC3"
        },
        {
            "bufferView" : 6,
            "componentType" : 5126,
            "count" : 231,
            "type" : "VEC2"
        },
        {
            "bufferView" : 7,
            "componentType" : 5123,
            "count" : 936,
            "type" : "SCALAR"
        },
        {
            "bufferView" : 8,
            "componentType" : 5126,
            "count" : 174,
            "max" : [
                0.5645184516906738,
                0.5645182132720947,
                0.12940943241119385
            ],
            "min" : [
                -0.5645184516906738,
                -0.5645186901092529,
                -0.1294095516204834
            ],
            "type" : "VEC3"
        },
        {
            "bufferView" : 9,
            "componentType" : 5126,
            "count" : 174,
            "type" : "VEC3"
        },
        {
            "bufferView" : 10,
            "componentType" : 5126,
            "count" : 174,
            "type" : "VEC2"
        },
        {
            "bufferView" : 11,
            "componentType" : 5123,
            "count" : 720,
            "type" : "SCALAR"
        }
    ],
    "bufferViews" : [
        {
            "buffer" : 0,
            "byteLength" : 5460,
            "byteOffset" : 0
        },
        {
            "buffer" : 0,
            "byteLength" : 5460,
            "byteOffset" : 5460
        },
        {
            "buffer" : 0,
            "byteLength" : 3640,
            "byteOffset" : 10920
        },
        {
            "buffer" : 0,
            "byteLength" : 3312,
            "byteOffset" : 14560
        },
        {
            "buffer" : 0,
            "byteLength" : 2772,
            "byteOffset" : 17872
        },
        {
            "buffer" : 0,
            "byteLength" : 2772,
            "byteOffset" : 20644
        },
        {
            "buffer" : 0,
            "byteLength" : 1848,
            "byteOffset" : 23416
        },
        {
            "buffer" : 0,
            "byteLength" : 1872,
            "byteOffset" : 25264
        },
        {
            "buffer" : 0,
            "byteLength" : 2088,
            "byteOffset" : 27136
        },
        {
            "buffer" : 0,
            "byteLength" : 2088,
            "byteOffset" : 29224
        },
        {
            "buffer" : 0,
            "byteLength" : 1392,
            "byteOffset" : 31312
        },
        {
            "buffer" : 0,
            "byteLength" : 1440,
            "byteOffset" : 32704
        }
    ],
    "buffers" : [
        {
            "byteLength" : 34144,
            "uri" : "data:application/octet-stream;base64,"
        }
    ]
}
