<svg version="1.1" id="Layer_1" xmlns="http://www.w3.org/2000/svg" xmlns:xlink="http://www.w3.org/1999/xlink" x="0px" y="0px"
	 width="100%" viewBox="0 0 500 500" enable-background="new 0 0 500 500" xml:space="preserve">
<path fill="#000000" opacity="1.000000" stroke="none" 
	d="
M347.000000,501.000000 
	C232.666687,501.000000 118.833366,500.980225 5.000178,501.095276 
	C1.576402,501.098755 0.903033,500.423889 0.905298,497.000031 
	C1.013775,333.000122 1.013758,169.000153 0.905339,5.000263 
	C0.903076,1.576999 1.575744,0.903019 4.999860,0.905284 
	C168.999741,1.013775 332.999725,1.013760 496.999634,0.905356 
	C500.422638,0.903093 501.096985,1.575404 501.094727,4.999741 
	C500.986206,168.999634 500.986237,332.999603 501.094604,496.999512 
	C501.096893,500.422272 500.426361,501.107391 497.000153,501.097626 
	C447.167084,500.955322 397.333466,501.000000 347.000000,501.000000 
z"/>
<path fill="#02FFFF" opacity="1.000000" stroke="none" 
	d="
M140.040314,380.143127 
	C139.155670,381.209747 138.432495,382.015137 137.448288,382.904541 
	C136.613800,383.333313 136.012634,383.641724 135.483566,384.513306 
	C132.442719,385.549103 132.881485,383.388763 133.037384,381.874481 
	C133.706192,375.378174 134.441620,368.886841 135.284500,362.410797 
	C136.461456,353.368134 137.592712,344.314209 139.055923,335.315887 
	C140.072830,329.062225 139.844635,322.633636 141.822632,316.517609 
	C142.683670,313.855286 141.539551,311.883820 139.575073,309.982391 
	C128.701538,299.457764 119.930656,287.320007 113.418495,273.705231 
	C109.742683,266.020355 106.685394,257.975342 106.095581,248.890228 
	C106.122963,248.281372 106.072624,248.077942 106.036926,247.560486 
	C105.040779,241.025192 104.977287,234.818634 106.259644,228.214447 
	C106.063225,217.889236 110.164352,209.130829 114.787872,200.928513 
	C127.449341,178.466537 146.937317,163.414047 169.544128,151.695923 
	C188.223389,142.013657 207.978180,136.289139 228.598846,132.918808 
	C234.416794,131.967911 240.246979,131.465714 246.540604,131.090546 
	C254.375061,131.905121 261.786743,131.352783 269.609436,131.312546 
	C277.355835,132.300247 284.722473,133.115295 292.054230,134.284164 
	C309.784302,137.110794 326.367981,142.870773 342.220062,151.047165 
	C344.517242,152.232056 346.954803,153.367554 348.846252,155.062759 
	C351.502838,157.443710 353.792603,156.614761 356.087463,154.964584 
	C366.500336,147.476883 376.521515,139.550949 384.354340,129.216156 
	C386.438904,126.465714 388.716522,125.926796 391.304413,128.793549 
	C396.402008,134.440292 402.114319,139.235367 410.289551,141.477753 
	C398.396484,151.292953 385.731628,159.114532 371.475708,165.023438 
	C370.762848,165.306335 370.416962,165.551025 369.751770,165.845734 
	C369.439667,165.905930 369.484375,165.966492 369.478577,165.929306 
	C368.627747,166.735199 366.717285,166.030228 366.706055,168.181580 
	C367.853638,169.059357 368.289001,170.139572 370.158691,169.545181 
	C375.029724,167.996628 380.122681,167.146179 385.536499,166.091370 
	C389.344788,166.938507 392.798309,166.257782 396.616791,166.705750 
	C400.024994,167.251923 403.054382,167.519730 406.032196,168.067902 
	C409.297699,168.669037 411.247070,170.149689 408.469299,173.851242 
	C407.094757,175.984741 407.127167,178.116989 407.356842,180.208206 
	C407.619720,182.601852 406.166656,182.532211 404.229980,182.237854 
	C399.740570,181.357819 395.592041,180.670105 391.001831,179.904175 
	C386.069519,177.496231 381.437653,178.304459 376.817383,179.565094 
	C384.898254,189.545593 389.911530,200.569046 391.968933,213.342987 
	C392.781281,221.934860 393.017822,230.112106 391.686401,238.659485 
	C389.885376,252.408676 385.124237,264.897827 378.622894,276.515961 
	C371.893494,288.541687 364.089081,299.992798 353.928162,310.000641 
	C353.133514,310.548065 352.659912,311.008575 352.146881,311.920593 
	C351.275146,313.023956 350.577942,313.834717 349.636597,314.764709 
	C349.041107,315.092438 348.709259,315.328064 348.205017,315.830780 
	C348.010315,316.066711 348.002625,316.003662 348.033417,316.011475 
	C347.792694,316.207245 347.547394,316.424774 347.176697,316.865967 
	C347.025085,317.060089 347.002808,317.002838 347.031372,317.014130 
	C346.788910,317.211273 346.544525,317.427277 346.176086,317.866699 
	C346.025391,318.059967 346.002838,318.002838 346.031372,318.014160 
	C345.789368,318.210876 345.545410,318.426392 345.177826,318.865051 
	C345.027557,319.058014 345.000763,319.001831 345.025208,319.021027 
	C344.579407,319.414948 343.987854,319.480011 343.250305,319.883972 
	C335.376862,327.584137 326.409698,333.337799 317.342285,338.899292 
	C311.199982,342.666718 304.640350,345.687225 297.408630,348.071716 
	C296.540466,348.470917 295.941315,348.477051 295.199524,348.876129 
	C294.990173,349.072479 294.998474,349.005371 295.031189,349.013916 
	C294.505188,349.496368 293.763611,349.482758 292.786285,349.824585 
	C292.445587,349.900299 292.493652,349.977448 292.482239,349.933411 
	C291.783417,350.328003 290.997375,350.490845 289.839050,350.795776 
	C289.452820,350.898987 289.506805,350.977234 289.489929,350.932526 
	C288.102264,352.063477 286.108154,350.856140 284.648987,352.460327 
	C276.055878,354.418121 267.754059,357.127838 258.543884,357.029663 
	C246.690842,357.238312 235.302231,357.010712 223.565582,355.299774 
	C215.963333,354.458099 209.190536,352.000916 201.885376,349.896667 
	C201.422089,349.637878 201.376831,349.467255 201.128052,349.127258 
	C200.924530,348.957886 201.053497,349.007416 201.032852,349.073334 
	C200.309708,348.105316 199.083618,348.730408 197.866577,348.071869 
	C197.527817,347.890350 197.493988,347.979126 197.520645,347.940125 
	C196.777313,347.691040 196.002472,347.498749 194.883499,347.087280 
	C194.530334,346.901337 194.511581,346.983948 194.532867,346.947266 
	C194.120209,346.854980 193.735062,346.684662 193.133118,346.224304 
	C189.322815,345.029907 185.993408,343.499542 182.961029,341.428680 
	C180.714005,339.894135 179.211166,340.085114 177.233139,342.153015 
	C170.494034,349.198364 163.503693,356.003387 156.296906,363.042511 
	C155.469147,363.516113 155.509918,364.105957 155.185760,364.821106 
	C155.041687,365.049072 155.002197,365.000793 155.030884,365.013092 
	C154.788788,365.211395 154.544540,365.427368 154.176056,365.866486 
	C154.025284,366.059631 154.002747,366.002533 154.030945,366.014648 
	C153.789078,366.211151 153.545776,366.425903 153.179596,366.863556 
	C153.029968,367.056122 153.001923,367.001831 153.028992,367.015991 
	C152.786621,367.213684 152.543991,367.427673 152.179108,367.864105 
	C152.030014,368.056122 152.001938,368.001862 152.029037,368.015930 
	C151.785934,368.214355 151.542572,368.429077 151.176300,368.866760 
	C151.026566,369.059296 151.002563,369.002838 151.031128,369.014038 
	C150.788849,369.211304 150.544540,369.427338 150.175964,369.866547 
	C150.025162,370.059723 150.002762,370.002533 150.031006,370.014587 
	C149.789169,370.211121 149.545822,370.425903 149.179550,370.863586 
	C149.029892,371.056183 149.001938,371.001862 149.029022,371.015961 
	C148.786636,371.213654 148.544006,371.427643 148.179077,371.864105 
	C148.029984,372.056152 148.001923,372.001862 148.029022,372.015961 
	C147.786636,372.213654 147.544006,372.427643 147.179077,372.864105 
	C147.029984,373.056152 147.001923,373.001862 147.029022,373.015961 
	C146.786636,373.213654 146.544006,373.427643 146.179108,373.864075 
	C146.030014,374.056122 146.001938,374.001862 146.029022,374.015961 
	C145.786667,374.213654 145.544037,374.427643 145.179138,374.864075 
	C145.030045,375.056091 145.001923,375.001831 145.028992,375.015991 
	C144.786621,375.213654 144.544022,375.427612 144.179199,375.864044 
	C144.030121,376.056061 144.001846,376.001831 144.028961,376.015961 
	C143.785950,376.214325 143.542679,376.428986 143.176590,376.866516 
	C143.026947,377.058990 143.002502,377.002808 143.030914,377.014282 
	C142.788040,377.212097 142.543335,377.428467 142.174133,377.868286 
	C142.023041,378.061737 142.003189,378.003174 142.032455,378.013123 
	C141.790115,378.209991 141.545013,378.426880 141.175003,378.867493 
	C141.023590,379.061249 141.003510,379.002686 141.033783,379.009155 
	C140.736710,379.264587 140.449234,379.553314 140.040314,380.143127 
z"/>
<path fill="#12FFFF" opacity="1.000000" stroke="none" 
	d="
M98.686142,242.628311 
	C98.888779,244.020370 98.943924,245.032547 98.991058,246.426056 
	C99.953133,248.243744 99.252754,249.892426 99.819923,251.715195 
	C100.071571,252.018387 100.006706,252.002075 100.020630,251.971680 
	C100.919426,253.366302 100.274727,254.966934 100.696609,256.819733 
	C102.567116,262.174561 104.232300,267.193756 106.034981,272.163086 
	C109.744675,282.389374 115.475517,291.555542 121.283844,300.657654 
	C124.172409,305.184265 127.381157,309.506042 130.413513,313.942078 
	C130.865143,314.602753 132.439789,314.902100 131.276703,316.188904 
	C130.080978,317.511841 129.686966,315.988525 129.045975,315.513947 
	C119.417671,308.385284 112.739563,298.689178 106.444603,288.794739 
	C99.548256,277.955048 94.960510,266.124084 92.591881,253.403702 
	C92.126427,250.904053 92.316597,248.497314 92.010788,245.633987 
	C90.895782,241.385986 91.746140,237.492691 91.792328,233.215591 
	C92.008804,216.723480 98.442436,202.972961 107.383698,190.138351 
	C108.590897,188.405502 110.017670,186.826248 111.330109,185.165863 
	C112.131645,184.151810 113.290550,183.524094 114.362419,184.156052 
	C116.063896,185.159225 114.305168,186.244690 113.926292,187.033981 
	C109.883041,195.456985 105.192635,203.587769 102.709778,212.695526 
	C101.343758,217.706467 99.831963,222.687424 99.913643,228.393738 
	C97.075073,233.070084 99.105156,237.785034 98.686142,242.628311 
z"/>
<path fill="#12FFFF" opacity="1.000000" stroke="none" 
	d="
M301.297333,364.538116 
	C301.092316,364.831421 300.627563,364.969604 300.394501,364.902832 
	C299.804077,364.617035 299.433502,364.603027 298.760162,364.820740 
	C298.468689,364.876953 298.500000,365.000000 298.481934,364.939117 
	C297.214142,365.809143 295.708649,365.321045 293.937561,365.742432 
	C293.529999,365.864227 293.505432,365.944855 293.481506,365.910156 
	C291.029877,367.124329 288.409546,366.181305 285.502808,366.685974 
	C281.362671,366.435760 277.104675,368.567535 273.126465,364.443237 
	C290.254883,361.782532 305.698944,356.779144 320.087677,348.930847 
	C335.478760,340.535889 349.952789,330.869080 360.858521,316.714264 
	C361.884247,315.382965 363.272888,313.033508 365.182343,314.204987 
	C367.352325,315.536285 365.689362,317.786316 364.838928,319.365845 
	C359.679382,328.948517 351.944427,336.307159 343.450714,342.789185 
	C334.337067,349.744385 324.414185,355.466797 313.470734,360.025696 
	C312.761078,360.307800 312.417877,360.550232 311.758118,360.842224 
	C311.448517,360.901581 311.493256,360.994263 311.478149,360.945312 
	C310.779633,361.329742 309.999756,361.491028 308.848511,361.787964 
	C308.464661,361.888306 308.497559,362.000000 308.479218,361.944183 
	C307.781311,362.329376 307.001587,362.490906 305.850372,362.787231 
	C305.466644,362.887787 305.496338,363.000000 305.479065,362.943726 
	C304.327332,363.880615 302.559540,363.026215 301.297333,364.538116 
z"/>
<path fill="#12FFFF" opacity="1.000000" stroke="none" 
	d="
M275.961365,123.109573 
	C275.573181,122.877533 275.405396,122.978188 275.332336,122.913116 
	C264.862274,122.052811 254.446503,122.774994 244.048203,122.409721 
	C242.779343,122.365150 240.145142,124.169456 240.598145,120.433151 
	C247.626480,117.255875 254.561966,115.824867 262.251282,116.047302 
	C269.961761,115.573479 277.203491,116.704193 284.880310,116.825058 
	C290.578613,118.373001 295.887207,119.610626 301.157562,120.994064 
	C307.604462,122.686317 313.303162,125.953903 318.730408,130.117035 
	C307.722504,129.963196 297.444397,125.016869 286.237946,124.545601 
	C282.915802,122.572189 279.534546,124.063408 275.961365,123.109573 
z"/>
<path fill="#A7FFFF" opacity="1.000000" stroke="none" 
	d="
M223.402374,355.644043 
	C223.511932,355.106812 223.952209,354.531799 224.260864,354.595398 
	C235.160919,356.842133 246.282822,355.850006 257.681458,356.974304 
	C251.782089,359.256836 245.171310,358.355072 238.892349,357.717590 
	C233.854813,357.206116 228.596680,357.608093 223.402374,355.644043 
z"/>
<path fill="#A7FFFF" opacity="1.000000" stroke="none" 
	d="
M240.567459,120.102684 
	C239.984543,123.625046 242.880905,121.950058 243.764679,121.965546 
	C252.526382,122.119011 261.291931,122.041031 270.056213,122.074280 
	C271.534149,122.079887 273.011261,122.303658 274.874023,122.637344 
	C264.065826,122.897629 252.872314,122.942711 241.678894,123.000290 
	C239.192413,123.013084 237.471802,122.673843 240.567459,120.102684 
z"/>
<path fill="#A7FFFF" opacity="1.000000" stroke="none" 
	d="
M285.056824,116.681198 
	C278.017761,116.849731 270.748535,116.628746 263.081116,116.247040 
	C265.789490,113.730896 269.571869,114.541000 272.617401,115.205078 
	C276.724976,116.100739 280.812592,115.497826 285.056824,116.681198 
z"/>
<path fill="#A7FFFF" opacity="1.000000" stroke="none" 
	d="
M391.919922,238.629425 
	C389.878143,236.172333 392.069611,233.337326 391.985687,230.452728 
	C391.828156,225.036270 392.195557,219.603790 391.617340,213.982971 
	C394.030518,215.223297 393.032104,217.416550 392.934174,219.190048 
	C392.584381,225.525253 394.166931,231.962204 391.919922,238.629425 
z"/>
<path fill="#A7FFFF" opacity="1.000000" stroke="none" 
	d="
M106.095833,228.131470 
	C106.187012,233.958054 106.195358,240.121460 106.127640,246.765671 
	C103.895439,240.991486 104.264473,234.731323 106.095833,228.131470 
z"/>
<path fill="#12FFFF" opacity="1.000000" stroke="none" 
	d="
M269.562927,131.088242 
	C262.601685,132.914124 255.111755,131.944839 247.309280,131.421509 
	C254.352600,131.113678 261.724609,131.062729 269.562927,131.088242 
z"/>
<path fill="#A7FFFF" opacity="1.000000" stroke="none" 
	d="
M377.072876,179.559296 
	C376.111450,179.161057 376.136505,178.221527 377.182343,178.174454 
	C381.633209,177.974091 386.152405,177.203354 390.509338,179.475006 
	C386.201477,178.413986 381.745087,179.054916 377.072876,179.559296 
z"/>
<path fill="#A7FFFF" opacity="1.000000" stroke="none" 
	d="
M98.915085,242.551544 
	C97.546799,238.346069 97.259651,233.701447 99.458267,228.956619 
	C98.197159,233.158249 99.372360,237.675827 98.915085,242.551544 
z"/>
<path fill="#A7FFFF" opacity="1.000000" stroke="none" 
	d="
M404.082336,182.422089 
	C405.163727,181.586960 407.186066,182.231430 406.583160,179.411011 
	C406.248993,177.847763 407.132874,176.024109 407.802429,174.170532 
	C408.100372,175.992599 407.858673,177.984558 408.072418,179.926361 
	C408.436096,183.229401 406.746490,183.439697 404.082336,182.422089 
z"/>
<path fill="#A7FFFF" opacity="1.000000" stroke="none" 
	d="
M91.635933,233.002991 
	C92.077087,236.611313 92.125542,240.432785 92.097954,244.726929 
	C89.788879,241.333359 91.279892,237.225113 91.635933,233.002991 
z"/>
<path fill="#A7FFFF" opacity="1.000000" stroke="none" 
	d="
M396.798279,166.499390 
	C393.527710,166.820755 390.037079,166.780975 386.246155,166.453323 
	C389.489990,166.156372 393.034088,166.147293 396.798279,166.499390 
z"/>
<path fill="#A7FFFF" opacity="1.000000" stroke="none" 
	d="
M275.833862,123.255371 
	C278.912323,122.650597 282.230194,122.748619 285.761932,123.863724 
	C282.711792,124.010643 279.403168,123.821922 275.833862,123.255371 
z"/>
<path fill="#A7FFFF" opacity="1.000000" stroke="none" 
	d="
M285.531769,366.905701 
	C287.425995,365.408539 290.089447,366.222168 293.004150,365.789124 
	C291.237579,368.136963 288.449341,366.537109 285.531769,366.905701 
z"/>
<path fill="#A7FFFF" opacity="1.000000" stroke="none" 
	d="
M366.945007,168.086365 
	C364.003021,165.187057 367.667511,166.321899 369.103485,165.791092 
	C368.664917,166.494278 367.857025,167.096436 366.945007,168.086365 
z"/>
<path fill="#A7FFFF" opacity="1.000000" stroke="none" 
	d="
M284.787354,352.576965 
	C285.070038,350.415192 287.169373,351.144714 289.079010,350.800781 
	C288.514771,352.950745 286.344391,351.346069 284.787354,352.576965 
z"/>
<path fill="#A7FFFF" opacity="1.000000" stroke="none" 
	d="
M301.442932,364.759460 
	C301.411346,362.629639 303.265503,363.089050 305.065613,362.827698 
	C304.845673,364.723663 302.672394,363.386597 301.442932,364.759460 
z"/>
<path fill="#A7FFFF" opacity="1.000000" stroke="none" 
	d="
M100.039230,251.611755 
	C98.358040,250.913574 99.153473,249.116440 98.920502,247.213837 
	C100.914062,247.903168 99.649750,249.742889 100.039230,251.611755 
z"/>
<path fill="#A7FFFF" opacity="1.000000" stroke="none" 
	d="
M100.906197,256.763062 
	C99.762039,255.851135 99.892029,254.228577 99.885796,252.308548 
	C102.016434,253.054932 100.629280,254.885788 100.906197,256.763062 
z"/>
<path fill="#A7FFFF" opacity="1.000000" stroke="none" 
	d="
M293.981384,365.923492 
	C294.710602,364.840576 296.199127,364.907837 298.038574,364.794922 
	C297.489899,366.595856 295.842529,365.855774 293.981384,365.923492 
z"/>
<path fill="#A7FFFF" opacity="1.000000" stroke="none" 
	d="
M197.766144,348.206360 
	C198.652527,347.541168 199.655975,347.895142 200.820648,348.782227 
	C200.009628,348.933624 199.007034,348.727997 197.766144,348.206360 
z"/>
<path fill="#A7FFFF" opacity="1.000000" stroke="none" 
	d="
M135.606903,384.724915 
	C135.306412,383.918640 135.694016,383.323120 136.887878,383.035828 
	C136.740982,383.533264 136.294693,384.077881 135.606903,384.724915 
z"/>
<path fill="#A7FFFF" opacity="1.000000" stroke="none" 
	d="
M352.217346,312.086853 
	C352.101105,311.402679 352.233582,310.594696 353.526184,310.358582 
	C353.372833,310.885162 352.917603,311.422852 352.217346,312.086853 
z"/>
<path fill="#A7FFFF" opacity="1.000000" stroke="none" 
	d="
M343.376038,320.056732 
	C343.172577,319.301453 343.701111,318.910461 344.737244,318.876221 
	C344.945007,319.846283 344.403564,320.045563 343.376038,320.056732 
z"/>
<path fill="#A7FFFF" opacity="1.000000" stroke="none" 
	d="
M194.791351,347.246094 
	C195.425568,346.457275 196.216736,346.819733 197.275146,347.560730 
	C196.715668,347.797729 195.884018,347.694305 194.791351,347.246094 
z"/>
<path fill="#A7FFFF" opacity="1.000000" stroke="none" 
	d="
M295.300110,349.035156 
	C295.124237,348.282593 295.720062,348.104462 296.705994,348.074860 
	C296.837952,348.883179 296.255676,348.992249 295.300110,349.035156 
z"/>
<path fill="#A7FFFF" opacity="1.000000" stroke="none" 
	d="
M292.838684,349.948334 
	C293.074188,349.537811 293.702759,349.175293 294.697632,348.917603 
	C294.830414,350.056702 294.017670,350.001282 292.838684,349.948334 
z"/>
<path fill="#A7FFFF" opacity="1.000000" stroke="none" 
	d="
M289.883911,350.948242 
	C289.930573,350.049744 290.761993,349.862030 292.048798,349.813049 
	C291.988647,350.718750 291.284271,351.115784 289.883911,350.948242 
z"/>
<path fill="#A7FFFF" opacity="1.000000" stroke="none" 
	d="
M155.342850,364.982819 
	C154.488449,364.364746 154.941757,363.884583 155.680313,363.292725 
	C155.871048,363.762115 155.757538,364.339325 155.342850,364.982819 
z"/>
<path fill="#A7FFFF" opacity="1.000000" stroke="none" 
	d="
M305.895142,362.941742 
	C306.187683,362.521179 306.908691,362.154572 308.045288,361.838196 
	C307.987427,362.718689 307.288574,363.113953 305.895142,362.941742 
z"/>
<path fill="#A7FFFF" opacity="1.000000" stroke="none" 
	d="
M308.893616,361.943115 
	C309.187439,361.502136 309.910187,361.115967 311.047974,360.813049 
	C310.988556,361.727966 310.287384,362.119080 308.893616,361.943115 
z"/>
<path fill="#A7FFFF" opacity="1.000000" stroke="none" 
	d="
M144.303757,376.012634 
	C144.143707,375.662079 144.257294,375.268127 144.713470,374.952148 
	C144.896500,375.343140 144.736938,375.656158 144.303757,376.012634 
z"/>
<path fill="#A7FFFF" opacity="1.000000" stroke="none" 
	d="
M151.300781,369.015015 
	C151.141037,368.664673 151.255508,368.270081 151.713058,367.952728 
	C151.895752,368.343567 151.735367,368.657166 151.300781,369.015015 
z"/>
<path fill="#A7FFFF" opacity="1.000000" stroke="none" 
	d="
M150.297592,370.010620 
	C150.145248,369.673340 150.265350,369.286987 150.722565,368.962921 
	C150.896469,369.337341 150.733246,369.649445 150.297592,370.010620 
z"/>
<path fill="#A7FFFF" opacity="1.000000" stroke="none" 
	d="
M149.304169,371.012329 
	C149.144272,370.661713 149.258652,370.267212 149.716141,369.949707 
	C149.898987,370.340576 149.738724,370.654541 149.304169,371.012329 
z"/>
<path fill="#A7FFFF" opacity="1.000000" stroke="none" 
	d="
M148.303650,372.012695 
	C148.143738,371.662323 148.257507,371.268463 148.713684,370.952332 
	C148.896515,371.343109 148.736923,371.656158 148.303650,372.012695 
z"/>
<path fill="#A7FFFF" opacity="1.000000" stroke="none" 
	d="
M147.303665,373.012695 
	C147.143753,372.662323 147.257523,372.268463 147.713699,371.952332 
	C147.896530,372.343109 147.736923,372.656158 147.303665,373.012695 
z"/>
<path fill="#A7FFFF" opacity="1.000000" stroke="none" 
	d="
M146.303650,374.012665 
	C146.143753,373.662262 146.257492,373.268433 146.713654,372.952332 
	C146.896484,373.343109 146.736893,373.656158 146.303650,374.012665 
z"/>
<path fill="#A7FFFF" opacity="1.000000" stroke="none" 
	d="
M145.303711,375.012634 
	C145.143723,374.662201 145.257416,374.268341 145.713608,373.952271 
	C145.896530,374.343109 145.736954,374.656158 145.303711,375.012634 
z"/>
<path fill="#A7FFFF" opacity="1.000000" stroke="none" 
	d="
M298.893311,364.926636 
	C298.789124,364.334229 299.233185,364.146210 299.996674,364.618896 
	C299.880249,364.882843 299.599091,364.929596 298.893311,364.926636 
z"/>
<path fill="#A7FFFF" opacity="1.000000" stroke="none" 
	d="
M143.301086,377.014771 
	C143.141098,376.664185 143.255264,376.269409 143.712738,375.952332 
	C143.895767,376.343597 143.735489,376.657074 143.301086,377.014771 
z"/>
<path fill="#A7FFFF" opacity="1.000000" stroke="none" 
	d="
M142.295868,378.012421 
	C142.142654,377.673401 142.262253,377.285065 142.720581,376.961243 
	C142.895767,377.338196 142.732224,377.650635 142.295868,378.012421 
z"/>
<path fill="#A7FFFF" opacity="1.000000" stroke="none" 
	d="
M141.296814,379.011780 
	C141.143448,378.672302 141.263321,378.283356 141.722443,377.958740 
	C141.897827,378.336151 141.733948,378.649200 141.296814,379.011780 
z"/>
<path fill="#A7FFFF" opacity="1.000000" stroke="none" 
	d="
M140.151184,380.231445 
	C140.015472,379.935333 140.152084,379.466309 140.676392,379.006409 
	C140.850555,379.363251 140.637039,379.710876 140.151184,380.231445 
z"/>
<path fill="#A7FFFF" opacity="1.000000" stroke="none" 
	d="
M369.796936,165.941895 
	C369.760406,165.595734 370.081146,165.285538 370.752228,165.014099 
	C370.786438,165.361206 370.470337,165.669525 369.796936,165.941895 
z"/>
<path fill="#A7FFFF" opacity="1.000000" stroke="none" 
	d="
M152.303680,368.012695 
	C152.143707,367.662140 152.257401,367.268127 152.713593,366.952148 
	C152.896500,367.343170 152.736923,367.656219 152.303680,368.012695 
z"/>
<path fill="#A7FFFF" opacity="1.000000" stroke="none" 
	d="
M153.304230,367.012299 
	C153.144196,366.661377 153.258423,366.266602 153.715912,365.949310 
	C153.898956,366.340668 153.738724,366.654572 153.304230,367.012299 
z"/>
<path fill="#A7FFFF" opacity="1.000000" stroke="none" 
	d="
M154.297668,366.010559 
	C154.145157,365.672882 154.265015,365.286102 154.722229,364.962372 
	C154.896408,365.337433 154.733231,365.649475 154.297668,366.010559 
z"/>
<path fill="#A7FFFF" opacity="1.000000" stroke="none" 
	d="
M348.320801,315.989899 
	C348.220490,315.671814 348.430664,315.276886 349.016602,314.882935 
	C349.138672,315.226959 348.884979,315.570007 348.320801,315.989899 
z"/>
<path fill="#A7FFFF" opacity="1.000000" stroke="none" 
	d="
M311.804260,360.942017 
	C311.768372,360.595978 312.088226,360.290375 312.753174,360.020782 
	C312.785522,360.365387 312.472778,360.673950 311.804260,360.942017 
z"/>
<path fill="#A7FFFF" opacity="1.000000" stroke="none" 
	d="
M106.145149,248.460114 
	C106.173302,248.484818 106.289665,248.418732 106.231277,248.402130 
	C106.172890,248.385529 106.116997,248.435410 106.145149,248.460114 
z"/>
<path fill="#A7FFFF" opacity="1.000000" stroke="none" 
	d="
M200.949844,349.138977 
	C201.063339,349.142731 201.211533,349.319702 201.418243,349.648682 
	C201.221130,349.728729 201.057068,349.565887 200.949844,349.138977 
z"/>
<path fill="#A7FFFF" opacity="1.000000" stroke="none" 
	d="
M193.017181,346.366943 
	C193.332611,346.104675 193.790848,346.176636 194.401627,346.579590 
	C194.089447,346.840790 193.624725,346.770966 193.017181,346.366943 
z"/>
<path fill="#A7FFFF" opacity="1.000000" stroke="none" 
	d="
M345.300598,319.010864 
	C345.144470,318.666962 345.261383,318.275940 345.719116,317.955200 
	C345.897797,318.338226 345.735718,318.650970 345.300598,319.010864 
z"/>
<path fill="#A7FFFF" opacity="1.000000" stroke="none" 
	d="
M346.298828,318.012329 
	C346.142883,317.668610 346.260376,317.277222 346.718933,316.955627 
	C346.897369,317.338531 346.734802,317.651642 346.298828,318.012329 
z"/>
<path fill="#A7FFFF" opacity="1.000000" stroke="none" 
	d="
M347.299622,317.011810 
	C347.145996,316.679504 347.266876,316.298950 347.726013,315.968811 
	C347.900848,316.334015 347.737488,316.648773 347.299622,317.011810 
z"/>
<path fill="#000000" opacity="1.000000" stroke="none" 
	d="
M222.546936,206.690369 
	C224.498901,206.883133 226.022186,206.932816 227.997253,206.903931 
	C235.834732,204.798172 243.524765,205.882874 251.007690,204.593872 
	C255.373260,203.841843 259.818268,203.093781 264.708557,203.256363 
	C271.665833,202.363083 278.229950,201.672287 285.276062,200.900360 
	C291.010803,198.912582 296.561401,198.929031 302.383087,198.442657 
	C304.606873,197.433578 306.662689,198.258118 309.099915,197.902756 
	C316.242828,195.554611 323.290649,195.765396 330.117004,194.582687 
	C332.224701,194.217514 334.381897,194.012161 336.496155,193.592896 
	C339.486786,192.999863 340.895172,194.028809 340.528473,197.252991 
	C340.322937,199.060303 340.530853,200.907547 340.303894,203.153259 
	C339.108368,204.108612 339.048187,205.062668 338.989960,206.090012 
	C338.342560,217.507797 338.202148,228.990158 336.801514,240.316162 
	C335.941284,247.272705 336.853760,254.342651 335.091614,261.611633 
	C335.659058,263.118652 335.470673,264.243713 335.174194,265.691956 
	C334.919647,266.026703 335.024506,266.017273 335.022705,265.964661 
	C333.602631,267.023010 331.965607,266.294647 330.062408,266.318298 
	C329.525391,266.044617 329.360474,265.910034 328.976135,265.570312 
	C313.353912,264.134308 298.205353,260.932373 282.888092,259.264709 
	C273.792328,258.274384 264.718079,257.126434 255.643723,255.980957 
	C247.303909,254.928177 240.095459,258.899750 232.594177,261.228546 
	C213.235687,267.238434 193.972794,273.575317 174.818405,280.205414 
	C171.470200,281.364349 170.725815,280.264130 170.047043,277.853180 
	C168.477295,272.277740 167.035614,266.666290 165.203125,260.836395 
	C164.096619,259.209198 164.859970,257.600983 164.065216,255.854950 
	C163.883896,255.524643 163.964935,255.503998 163.931641,255.529266 
	C162.854309,252.611237 162.101364,249.588425 161.234070,246.207642 
	C159.315445,235.592560 156.292175,225.651291 153.013794,215.385529 
	C152.570068,213.006332 151.393250,210.633011 155.138016,210.489410 
	C167.534012,210.014084 179.882599,208.616043 192.754059,208.689728 
	C193.409302,208.879364 193.611359,208.922913 194.115326,208.895981 
	C200.430130,206.979630 206.701721,207.783127 212.832321,207.090607 
	C215.891571,206.745041 218.992905,206.158035 222.546936,206.690369 
z"/>
<path fill="#A7FFFF" opacity="1.000000" stroke="none" 
	d="
M192.904266,208.517395 
	C180.743423,209.560303 168.284302,210.396332 155.812027,210.919495 
	C153.173309,211.030182 152.766464,212.059906 152.903656,214.596313 
	C150.519516,211.376480 151.411682,209.980270 155.851456,209.834396 
	C168.105438,209.431763 180.305527,207.766434 192.904266,208.517395 
z"/>
<path fill="#A7FFFF" opacity="1.000000" stroke="none" 
	d="
M340.307495,203.254211 
	C339.809967,193.853638 339.743042,193.461472 329.928589,195.136703 
	C323.408081,196.249680 316.796173,196.569885 309.961334,197.878326 
	C309.920197,195.503387 311.844696,196.318207 313.128326,196.140091 
	C320.353088,195.137604 327.598816,194.286926 334.825897,193.300354 
	C341.101013,192.443726 341.314575,192.594788 340.860077,198.977615 
	C340.765900,200.300491 340.596436,201.618011 340.307495,203.254211 
z"/>
<path fill="#A7FFFF" opacity="1.000000" stroke="none" 
	d="
M264.640656,202.976837 
	C262.229309,205.332001 258.609528,204.197983 255.442139,204.734909 
	C246.834549,206.194031 237.996597,206.294327 228.849487,206.879303 
	C228.514771,205.813492 229.108704,205.384491 230.066254,205.394714 
	C241.507294,205.516922 252.774826,203.269775 264.640656,202.976837 
z"/>
<path fill="#A7FFFF" opacity="1.000000" stroke="none" 
	d="
M222.684158,206.539764 
	C213.725037,207.533432 204.474472,208.233444 194.820587,208.879486 
	C194.496994,207.816544 195.096909,207.421722 196.053101,207.381073 
	C204.833191,207.007996 213.612900,206.625702 222.684158,206.539764 
z"/>
<path fill="#A7FFFF" opacity="1.000000" stroke="none" 
	d="
M302.581665,198.286118 
	C297.319641,199.366394 291.885529,200.149811 286.104706,200.876221 
	C287.200989,197.873825 290.029449,199.450684 292.189209,198.928070 
	C295.523895,198.121124 298.938812,197.594620 302.581665,198.286118 
z"/>
<path fill="#A7FFFF" opacity="1.000000" stroke="none" 
	d="
M161.019867,246.279373 
	C163.459396,248.321503 163.263840,251.653717 163.948639,255.113342 
	C161.737579,252.988281 161.670212,249.739685 161.019867,246.279373 
z"/>
<path fill="#A7FFFF" opacity="1.000000" stroke="none" 
	d="
M329.930145,266.340149 
	C331.204712,266.121307 332.719177,266.063385 334.627258,265.958771 
	C333.606140,267.773560 331.794983,266.370575 329.930145,266.340149 
z"/>
<path fill="#A7FFFF" opacity="1.000000" stroke="none" 
	d="
M163.790161,255.916779 
	C165.698318,256.601379 164.817169,258.352722 164.914886,260.224915 
	C163.691483,259.384918 163.944748,257.778717 163.790161,255.916779 
z"/>
<path fill="#A7FFFF" opacity="1.000000" stroke="none" 
	d="
M335.191101,265.843140 
	C334.957458,264.962738 334.995270,263.898743 335.099915,262.441132 
	C336.363220,263.161621 335.896912,264.411896 335.191101,265.843140 
z"/>
<path fill="#A7FFFF" opacity="1.000000" stroke="none" 
	d="
M328.718842,265.363770 
	C328.756653,265.365204 328.792297,265.371155 328.756409,265.359955 
	C328.720520,265.348755 328.681030,265.362335 328.718842,265.363770 
z"/>
<path fill="#08FFFF" opacity="1.000000" stroke="none" 
	d="
M233.115173,244.086334 
	C232.918350,244.462509 232.998886,244.493179 232.958908,244.474182 
	C232.858490,244.874146 232.699448,245.249817 232.228821,245.817078 
	C232.030807,246.058533 232.004395,246.002197 232.034286,246.010834 
	C231.789642,246.220276 231.543976,246.451752 231.179184,246.920532 
	C224.371048,254.555817 217.407272,253.455292 212.398880,244.824585 
	C209.399979,239.656708 209.070770,234.045074 211.229446,228.446564 
	C214.003555,221.251877 221.780624,218.844101 227.883072,223.489883 
	C231.129227,225.961151 233.711975,229.190948 233.907379,234.032867 
	C234.328583,237.566666 233.508911,240.620941 233.115173,244.086334 
z"/>
<path fill="#08FFFF" opacity="1.000000" stroke="none" 
	d="
M286.242493,236.686920 
	C285.179230,240.108078 284.179382,243.063171 281.399170,244.856873 
	C275.508881,248.657074 270.514008,247.613724 265.824402,241.222183 
	C261.697052,235.596954 261.680450,229.011856 264.156006,223.009521 
	C267.406219,215.128784 278.118652,212.971375 284.756226,223.379227 
	C285.305054,224.221451 285.481415,224.858337 285.840393,225.753876 
	C286.068695,225.995041 286.006378,225.999939 286.020935,225.972290 
	C286.978607,229.350677 286.319916,232.820084 286.242493,236.686920 
z"/>
<path fill="#A7FFFF" opacity="1.000000" stroke="none" 
	d="
M233.254272,244.211945 
	C233.093338,241.326660 233.268326,238.190826 233.637833,234.746765 
	C236.750565,237.689087 233.539688,240.783768 233.254272,244.211945 
z"/>
<path fill="#A7FFFF" opacity="1.000000" stroke="none" 
	d="
M286.425476,236.913696 
	C285.921539,233.683151 285.801453,230.251038 285.858429,226.381775 
	C288.052979,229.407333 286.686188,233.113266 286.425476,236.913696 
z"/>
<path fill="#A7FFFF" opacity="1.000000" stroke="none" 
	d="
M286.043549,225.639999 
	C285.080841,225.928436 284.957855,225.162476 284.853210,224.047272 
	C285.594971,223.989548 286.090607,224.441986 286.043549,225.639999 
z"/>
<path fill="#A7FFFF" opacity="1.000000" stroke="none" 
	d="
M232.375336,245.949432 
	C232.082977,245.593445 232.135117,245.128342 232.553101,244.559219 
	C232.852570,244.916901 232.786209,245.378632 232.375336,245.949432 
z"/>
<path fill="#A7FFFF" opacity="1.000000" stroke="none" 
	d="
M231.297134,247.044373 
	C231.160934,246.747208 231.290665,246.367203 231.742294,246.003326 
	C231.897141,246.333466 231.730103,246.647491 231.297134,247.044373 
z"/>
</svg>