{
    "asset" : {
        "generator" : "Khronos glTF Blender I/O v1.7.33",
        "version" : "2.0"
    },
    "scene" : 0,
    "scenes" : [
        {
            "name" : "Scene",
            "nodes" : [
                0,
                1,
                2,
                3,
                4,
                5,
                6
            ]
        }
    ],
    "nodes" : [
        {
            "mesh" : 0,
            "name" : "Wheel_1",
            "translation" : [
                1.7961974143981934,
                0.5264586806297302,
                -1.7638165950775146
            ]
        },
        {
            "mesh" : 1,
            "name" : "Wheel_2",
            "translation" : [
                -1.7961974143981934,
                0.5264586210250854,
                -3.2996225357055664
            ]
        },
        {
            "mesh" : 2,
            "name" : "Wheel_3",
            "translation" : [
                1.7961974143981934,
                0.5264586210250854,
                -3.2996225357055664
            ]
        },
        {
            "mesh" : 3,
            "name" : "Wheel_4",
            "translation" : [
                -1.7961974143981934,
                0.5264586210250854,
                1.8966612815856934
            ]
        },
        {
            "mesh" : 4,
            "name" : "Wheel_5",
            "translation" : [
                1.7961974143981934,
                0.5264586210250854,
                1.8966612815856934
            ]
        },
        {
            "mesh" : 5,
            "name" : "Wheel_6",
            "translation" : [
                -1.7961974143981934,
                0.5264586806297302,
                -1.7638165950775146
            ]
        },
        {
            "mesh" : 6,
            "name" : "Rover_2"
        }
    ],
    "materials" : [
        {
            "doubleSided" : true,
            "name" : "Atlas.001",
            "pbrMetallicRoughness" : {
                "baseColorTexture" : {
                    "index" : 0
                },
                "metallicFactor" : 0,
                "roughnessFactor" : 0.5
            }
        }
    ],
    "meshes" : [
        {
            "name" : "Cube.006",
            "primitives" : [
                {
                    "attributes" : {
                        "POSITION" : 0,
                        "NORMAL" : 1,
                        "TEXCOORD_0" : 2
                    },
                    "indices" : 3,
                    "material" : 0
                }
            ]
        },
        {
            "name" : "Cube.005",
            "primitives" : [
                {
                    "attributes" : {
                        "POSITION" : 4,
                        "NORMAL" : 5,
                        "TEXCOORD_0" : 6
                    },
                    "indices" : 7,
                    "material" : 0
                }
            ]
        },
        {
            "name" : "Cube.004",
            "primitives" : [
                {
                    "attributes" : {
                        "POSITION" : 8,
                        "NORMAL" : 9,
                        "TEXCOORD_0" : 10
                    },
                    "indices" : 11,
                    "material" : 0
                }
            ]
        },
        {
            "name" : "Cube.003",
            "primitives" : [
                {
                    "attributes" : {
                        "POSITION" : 12,
                        "NORMAL" : 13,
                        "TEXCOORD_0" : 14
                    },
                    "indices" : 15,
                    "material" : 0
                }
            ]
        },
        {
            "name" : "Cube.002",
            "primitives" : [
                {
                    "attributes" : {
                        "POSITION" : 16,
                        "NORMAL" : 17,
                        "TEXCOORD_0" : 18
                    },
                    "indices" : 19,
                    "material" : 0
                }
            ]
        },
        {
            "name" : "Cube.001",
            "primitives" : [
                {
                    "attributes" : {
                        "POSITION" : 20,
                        "NORMAL" : 21,
                        "TEXCOORD_0" : 22
                    },
                    "indices" : 23,
                    "material" : 0
                }
            ]
        },
        {
            "name" : "Cube",
            "primitives" : [
                {
                    "attributes" : {
                        "POSITION" : 24,
                        "NORMAL" : 25,
                        "TEXCOORD_0" : 26
                    },
                    "indices" : 27,
                    "material" : 0
                }
            ]
        }
    ],
    "textures" : [
        {
            "sampler" : 0,
            "source" : 0
        }
    ],
    "images" : [
        {
            "bufferView" : 4,
            "mimeType" : "image/png",
            "name" : "Atlas"
        }
    ],
    "accessors" : [
        {
            "bufferView" : 0,
            "componentType" : 5126,
            "count" : 1164,
            "max" : [
                0.494952917098999,
                0.6759714484214783,
                0.6829226016998291
            ],
            "min" : [
                -0.494952917098999,
                -0.675971508026123,
                -0.6829226016998291
            ],
            "type" : "VEC3"
        },
        {
            "bufferView" : 1,
            "componentType" : 5126,
            "count" : 1164,
            "type" : "VEC3"
        },
        {
            "bufferView" : 2,
            "componentType" : 5126,
            "count" : 1164,
            "type" : "VEC2"
        },
        {
            "bufferView" : 3,
            "componentType" : 5123,
            "count" : 3156,
            "type" : "SCALAR"
        },
        {
            "bufferView" : 5,
            "componentType" : 5126,
            "count" : 1164,
            "max" : [
                0.494952917098999,
                0.675971508026123,
                0.6829226016998291
            ],
            "min" : [
                -0.494952917098999,
                -0.6759714484214783,
                -0.6829226016998291
            ],
            "type" : "VEC3"
        },
        {
            "bufferView" : 6,
            "componentType" : 5126,
            "count" : 1164,
            "type" : "VEC3"
        },
        {
            "bufferView" : 7,
            "componentType" : 5126,
            "count" : 1164,
            "type" : "VEC2"
        },
        {
            "bufferView" : 8,
            "componentType" : 5123,
            "count" : 3156,
            "type" : "SCALAR"
        },
        {
            "bufferView" : 9,
            "componentType" : 5126,
            "count" : 1164,
            "max" : [
                0.494952917098999,
                0.675971508026123,
                0.6829226016998291
            ],
            "min" : [
                -0.494952917098999,
                -0.6759714484214783,
                -0.6829226016998291
            ],
            "type" : "VEC3"
        },
        {
            "bufferView" : 10,
            "componentType" : 5126,
            "count" : 1164,
            "type" : "VEC3"
        },
        {
            "bufferView" : 11,
            "componentType" : 5126,
            "count" : 1164,
            "type" : "VEC2"
        },
        {
            "bufferView" : 12,
            "componentType" : 5123,
            "count" : 3156,
            "type" : "SCALAR"
        },
        {
            "bufferView" : 13,
            "componentType" : 5126,
            "count" : 1164,
            "max" : [
                0.494952917098999,
                0.675971508026123,
                0.6829228401184082
            ],
            "min" : [
                -0.494952917098999,
                -0.6759714484214783,
                -0.6829228401184082
            ],
            "type" : "VEC3"
        },
        {
            "bufferView" : 14,
            "componentType" : 5126,
            "count" : 1164,
            "type" : "VEC3"
        },
        {
            "bufferView" : 15,
            "componentType" : 5126,
            "count" : 1164,
            "type" : "VEC2"
        },
        {
            "bufferView" : 16,
            "componentType" : 5123,
            "count" : 3156,
            "type" : "SCALAR"
        },
        {
            "bufferView" : 17,
            "componentType" : 5126,
            "count" : 1164,
            "max" : [
                0.494952917098999,
                0.675971508026123,
                0.6829228401184082
            ],
            "min" : [
                -0.494952917098999,
                -0.6759714484214783,
                -0.6829228401184082
            ],
            "type" : "VEC3"
        },
        {
            "bufferView" : 18,
            "componentType" : 5126,
            "count" : 1164,
            "type" : "VEC3"
        },
        {
            "bufferView" : 19,
            "componentType" : 5126,
            "count" : 1164,
            "type" : "VEC2"
        },
        {
            "bufferView" : 20,
            "componentType" : 5123,
            "count" : 3156,
            "type" : "SCALAR"
        },
        {
            "bufferView" : 21,
            "componentType" : 5126,
            "count" : 1164,
            "max" : [
                0.494952917098999,
                0.6759714484214783,
                0.6829226016998291
            ],
            "min" : [
                -0.494952917098999,
                -0.675971508026123,
                -0.6829226016998291
            ],
            "type" : "VEC3"
        },
        {
            "bufferView" : 22,
            "componentType" : 5126,
            "count" : 1164,
            "type" : "VEC3"
        },
        {
            "bufferView" : 23,
            "componentType" : 5126,
            "count" : 1164,
            "type" : "VEC2"
        },
        {
            "bufferView" : 24,
            "componentType" : 5123,
            "count" : 3156,
            "type" : "SCALAR"
        },
        {
            "bufferView" : 25,
            "componentType" : 5126,
            "count" : 2338,
            "max" : [
                1.3722586631774902,
                4.732958793640137,
                2.3866329193115234
            ],
            "min" : [
                -1.3722586631774902,
                0.44038182497024536,
                -3.8056299686431885
            ],
            "type" : "VEC3"
        },
        {
            "bufferView" : 26,
            "componentType" : 5126,
            "count" : 2338,
            "type" : "VEC3"
        },
        {
            "bufferView" : 27,
            "componentType" : 5126,
            "count" : 2338,
            "type" : "VEC2"
        },
        {
            "bufferView" : 28,
            "componentType" : 5123,
            "count" : 5160,
            "type" : "SCALAR"
        }
    ],
    "bufferViews" : [
        {
            "buffer" : 0,
            "byteLength" : 13968,
            "byteOffset" : 0
        },
        {
            "buffer" : 0,
            "byteLength" : 13968,
            "byteOffset" : 13968
        },
        {
            "buffer" : 0,
            "byteLength" : 9312,
            "byteOffset" : 27936
        },
        {
            "buffer" : 0,
            "byteLength" : 6312,
            "byteOffset" : 37248
        },
        {
            "buffer" : 0,
            "byteLength" : 3396,
            "byteOffset" : 43560
        },
        {
            "buffer" : 0,
            "byteLength" : 13968,
            "byteOffset" : 46956
        },
        {
            "buffer" : 0,
            "byteLength" : 13968,
            "byteOffset" : 60924
        },
        {
            "buffer" : 0,
            "byteLength" : 9312,
            "byteOffset" : 74892
        },
        {
            "buffer" : 0,
            "byteLength" : 6312,
            "byteOffset" : 84204
        },
        {
            "buffer" : 0,
            "byteLength" : 13968,
            "byteOffset" : 90516
        },
        {
            "buffer" : 0,
            "byteLength" : 13968,
            "byteOffset" : 104484
        },
        {
            "buffer" : 0,
            "byteLength" : 9312,
            "byteOffset" : 118452
        },
        {
            "buffer" : 0,
            "byteLength" : 6312,
            "byteOffset" : 127764
        },
        {
            "buffer" : 0,
            "byteLength" : 13968,
            "byteOffset" : 134076
        },
        {
            "buffer" : 0,
            "byteLength" : 13968,
            "byteOffset" : 148044
        },
        {
            "buffer" : 0,
            "byteLength" : 9312,
            "byteOffset" : 162012
        },
        {
            "buffer" : 0,
            "byteLength" : 6312,
            "byteOffset" : 171324
        },
        {
            "buffer" : 0,
            "byteLength" : 13968,
            "byteOffset" : 177636
        },
        {
            "buffer" : 0,
            "byteLength" : 13968,
            "byteOffset" : 191604
        },
        {
            "buffer" : 0,
            "byteLength" : 9312,
            "byteOffset" : 205572
        },
        {
            "buffer" : 0,
            "byteLength" : 6312,
            "byteOffset" : 214884
        },
        {
            "buffer" : 0,
            "byteLength" : 13968,
            "byteOffset" : 221196
        },
        {
            "buffer" : 0,
            "byteLength" : 13968,
            "byteOffset" : 235164
        },
        {
            "buffer" : 0,
            "byteLength" : 9312,
            "byteOffset" : 249132
        },
        {
            "buffer" : 0,
            "byteLength" : 6312,
            "byteOffset" : 258444
        },
        {
            "buffer" : 0,
            "byteLength" : 28056,
            "byteOffset" : 264756
        },
        {
            "buffer" : 0,
            "byteLength" : 28056,
            "byteOffset" : 292812
        },
        {
            "buffer" : 0,
            "byteLength" : 18704,
            "byteOffset" : 320868
        },
        {
            "buffer" : 0,
            "byteLength" : 10320,
            "byteOffset" : 339572
        }
    ],
    "samplers" : [
        {
            "magFilter" : 9729,
            "minFilter" : 9987
        }
    ],
    "buffers" : [
        {
            "byteLength" : 349892,
            "uri" : "data:application/octet-stream;base64,"
        }
    ]
}
