{
    "asset" : {
        "generator" : "Khronos glTF Blender I/O v1.7.33",
        "version" : "2.0"
    },
    "scene" : 0,
    "scenes" : [
        {
            "name" : "Scene",
            "nodes" : [
                0,
                1,
                2,
                3,
                4
            ]
        }
    ],
    "nodes" : [
        {
            "mesh" : 0,
            "name" : "Wheel_1",
            "translation" : [
                1.7961974143981934,
                0.5264586210250854,
                -1.8966611623764038
            ]
        },
        {
            "mesh" : 1,
            "name" : "Wheel_2",
            "translation" : [
                -1.7961974143981934,
                0.5264586210250854,
                1.8966612815856934
            ]
        },
        {
            "mesh" : 2,
            "name" : "Wheel_3",
            "translation" : [
                1.7961974143981934,
                0.5264586210250854,
                1.8966612815856934
            ]
        },
        {
            "mesh" : 3,
            "name" : "Wheel_4",
            "translation" : [
                -1.7961974143981934,
                0.5264586210250854,
                -1.8966611623764038
            ]
        },
        {
            "mesh" : 4,
            "name" : "Rover_1"
        }
    ],
    "materials" : [
        {
            "doubleSided" : true,
            "name" : "Atlas",
            "pbrMetallicRoughness" : {
                "baseColorTexture" : {
                    "index" : 0
                },
                "metallicFactor" : 0,
                "roughnessFactor" : 0.5
            }
        }
    ],
    "meshes" : [
        {
            "name" : "Cube.003",
            "primitives" : [
                {
                    "attributes" : {
                        "POSITION" : 0,
                        "NORMAL" : 1,
                        "TEXCOORD_0" : 2
                    },
                    "indices" : 3,
                    "material" : 0
                }
            ]
        },
        {
            "name" : "Cube.002",
            "primitives" : [
                {
                    "attributes" : {
                        "POSITION" : 4,
                        "NORMAL" : 5,
                        "TEXCOORD_0" : 6
                    },
                    "indices" : 7,
                    "material" : 0
                }
            ]
        },
        {
            "name" : "Cube.001",
            "primitives" : [
                {
                    "attributes" : {
                        "POSITION" : 8,
                        "NORMAL" : 9,
                        "TEXCOORD_0" : 10
                    },
                    "indices" : 11,
                    "material" : 0
                }
            ]
        },
        {
            "name" : "Cube.000",
            "primitives" : [
                {
                    "attributes" : {
                        "POSITION" : 12,
                        "NORMAL" : 13,
                        "TEXCOORD_0" : 14
                    },
                    "indices" : 15,
                    "material" : 0
                }
            ]
        },
        {
            "name" : "Cube.032",
            "primitives" : [
                {
                    "attributes" : {
                        "POSITION" : 16,
                        "NORMAL" : 17,
                        "TEXCOORD_0" : 18
                    },
                    "indices" : 19,
                    "material" : 0
                }
            ]
        }
    ],
    "textures" : [
        {
            "sampler" : 0,
            "source" : 0
        }
    ],
    "images" : [
        {
            "bufferView" : 4,
            "mimeType" : "image/png",
            "name" : "Atlas"
        }
    ],
    "accessors" : [
        {
            "bufferView" : 0,
            "componentType" : 5126,
            "count" : 1172,
            "max" : [
                0.494952917098999,
                0.675971508026123,
                0.6829227209091187
            ],
            "min" : [
                -0.494952917098999,
                -0.6759714484214783,
                -0.6829227209091187
            ],
            "type" : "VEC3"
        },
        {
            "bufferView" : 1,
            "componentType" : 5126,
            "count" : 1172,
            "type" : "VEC3"
        },
        {
            "bufferView" : 2,
            "componentType" : 5126,
            "count" : 1172,
            "type" : "VEC2"
        },
        {
            "bufferView" : 3,
            "componentType" : 5123,
            "count" : 3156,
            "type" : "SCALAR"
        },
        {
            "bufferView" : 5,
            "componentType" : 5126,
            "count" : 1172,
            "max" : [
                0.494952917098999,
                0.675971508026123,
                0.6829228401184082
            ],
            "min" : [
                -0.494952917098999,
                -0.6759714484214783,
                -0.6829228401184082
            ],
            "type" : "VEC3"
        },
        {
            "bufferView" : 6,
            "componentType" : 5126,
            "count" : 1172,
            "type" : "VEC3"
        },
        {
            "bufferView" : 7,
            "componentType" : 5126,
            "count" : 1172,
            "type" : "VEC2"
        },
        {
            "bufferView" : 8,
            "componentType" : 5123,
            "count" : 3156,
            "type" : "SCALAR"
        },
        {
            "bufferView" : 9,
            "componentType" : 5126,
            "count" : 1172,
            "max" : [
                0.494952917098999,
                0.675971508026123,
                0.6829228401184082
            ],
            "min" : [
                -0.494952917098999,
                -0.6759714484214783,
                -0.6829228401184082
            ],
            "type" : "VEC3"
        },
        {
            "bufferView" : 10,
            "componentType" : 5126,
            "count" : 1172,
            "type" : "VEC3"
        },
        {
            "bufferView" : 11,
            "componentType" : 5126,
            "count" : 1172,
            "type" : "VEC2"
        },
        {
            "bufferView" : 12,
            "componentType" : 5123,
            "count" : 3156,
            "type" : "SCALAR"
        },
        {
            "bufferView" : 13,
            "componentType" : 5126,
            "count" : 1172,
            "max" : [
                0.494952917098999,
                0.675971508026123,
                0.6829227209091187
            ],
            "min" : [
                -0.494952917098999,
                -0.6759714484214783,
                -0.6829227209091187
            ],
            "type" : "VEC3"
        },
        {
            "bufferView" : 14,
            "componentType" : 5126,
            "count" : 1172,
            "type" : "VEC3"
        },
        {
            "bufferView" : 15,
            "componentType" : 5126,
            "count" : 1172,
            "type" : "VEC2"
        },
        {
            "bufferView" : 16,
            "componentType" : 5123,
            "count" : 3156,
            "type" : "SCALAR"
        },
        {
            "bufferView" : 17,
            "componentType" : 5126,
            "count" : 3924,
            "max" : [
                1.5693897008895874,
                4.732958793640137,
                2.3866329193115234
            ],
            "min" : [
                -1.5693897008895874,
                0.44038182497024536,
                -2.4411847591400146
            ],
            "type" : "VEC3"
        },
        {
            "bufferView" : 18,
            "componentType" : 5126,
            "count" : 3924,
            "type" : "VEC3"
        },
        {
            "bufferView" : 19,
            "componentType" : 5126,
            "count" : 3924,
            "type" : "VEC2"
        },
        {
            "bufferView" : 20,
            "componentType" : 5123,
            "count" : 9414,
            "type" : "SCALAR"
        }
    ],
    "bufferViews" : [
        {
            "buffer" : 0,
            "byteLength" : 14064,
            "byteOffset" : 0
        },
        {
            "buffer" : 0,
            "byteLength" : 14064,
            "byteOffset" : 14064
        },
        {
            "buffer" : 0,
            "byteLength" : 9376,
            "byteOffset" : 28128
        },
        {
            "buffer" : 0,
            "byteLength" : 6312,
            "byteOffset" : 37504
        },
        {
            "buffer" : 0,
            "byteLength" : 3396,
            "byteOffset" : 43816
        },
        {
            "buffer" : 0,
            "byteLength" : 14064,
            "byteOffset" : 47212
        },
        {
            "buffer" : 0,
            "byteLength" : 14064,
            "byteOffset" : 61276
        },
        {
            "buffer" : 0,
            "byteLength" : 9376,
            "byteOffset" : 75340
        },
        {
            "buffer" : 0,
            "byteLength" : 6312,
            "byteOffset" : 84716
        },
        {
            "buffer" : 0,
            "byteLength" : 14064,
            "byteOffset" : 91028
        },
        {
            "buffer" : 0,
            "byteLength" : 14064,
            "byteOffset" : 105092
        },
        {
            "buffer" : 0,
            "byteLength" : 9376,
            "byteOffset" : 119156
        },
        {
            "buffer" : 0,
            "byteLength" : 6312,
            "byteOffset" : 128532
        },
        {
            "buffer" : 0,
            "byteLength" : 14064,
            "byteOffset" : 134844
        },
        {
            "buffer" : 0,
            "byteLength" : 14064,
            "byteOffset" : 148908
        },
        {
            "buffer" : 0,
            "byteLength" : 9376,
            "byteOffset" : 162972
        },
        {
            "buffer" : 0,
            "byteLength" : 6312,
            "byteOffset" : 172348
        },
        {
            "buffer" : 0,
            "byteLength" : 47088,
            "byteOffset" : 178660
        },
        {
            "buffer" : 0,
            "byteLength" : 47088,
            "byteOffset" : 225748
        },
        {
            "buffer" : 0,
            "byteLength" : 31392,
            "byteOffset" : 272836
        },
        {
            "buffer" : 0,
            "byteLength" : 18828,
            "byteOffset" : 304228
        }
    ],
    "samplers" : [
        {
            "magFilter" : 9729,
            "minFilter" : 9987
        }
    ],
    "buffers" : [
        {
            "byteLength" : 323056,
            "uri" : "data:application/octet-stream;base64,"
        }
    ]
}
