{
    "asset" : {
        "generator" : "Khronos glTF Blender I/O v1.7.33",
        "version" : "2.0"
    },
    "scene" : 0,
    "scenes" : [
        {
            "name" : "Scene",
            "nodes" : [
                0,
                1,
                2,
                3,
                4
            ]
        }
    ],
    "nodes" : [
        {
            "mesh" : 0,
            "name" : "Wheel_1",
            "translation" : [
                2.399186372756958,
                0.5264586210250854,
                -1.162355899810791
            ]
        },
        {
            "mesh" : 1,
            "name" : "Wheel_2",
            "translation" : [
                -2.399186372756958,
                0.5264586210250854,
                1.162355899810791
            ]
        },
        {
            "mesh" : 2,
            "name" : "Wheel_3",
            "translation" : [
                2.399186372756958,
                0.5264586210250854,
                1.162355899810791
            ]
        },
        {
            "mesh" : 3,
            "name" : "Wheel_4",
            "translation" : [
                -2.399186372756958,
                0.5264586210250854,
                -1.162355899810791
            ]
        },
        {
            "mesh" : 4,
            "name" : "Rover_Round"
        }
    ],
    "materials" : [
        {
            "doubleSided" : true,
            "name" : "Atlas",
            "pbrMetallicRoughness" : {
                "baseColorTexture" : {
                    "index" : 0
                },
                "metallicFactor" : 0,
                "roughnessFactor" : 0.5
            }
        }
    ],
    "meshes" : [
        {
            "name" : "Cube.003",
            "primitives" : [
                {
                    "attributes" : {
                        "POSITION" : 0,
                        "NORMAL" : 1,
                        "TEXCOORD_0" : 2
                    },
                    "indices" : 3,
                    "material" : 0
                }
            ]
        },
        {
            "name" : "Cube.002",
            "primitives" : [
                {
                    "attributes" : {
                        "POSITION" : 4,
                        "NORMAL" : 5,
                        "TEXCOORD_0" : 6
                    },
                    "indices" : 7,
                    "material" : 0
                }
            ]
        },
        {
            "name" : "Cube.001",
            "primitives" : [
                {
                    "attributes" : {
                        "POSITION" : 8,
                        "NORMAL" : 9,
                        "TEXCOORD_0" : 10
                    },
                    "indices" : 11,
                    "material" : 0
                }
            ]
        },
        {
            "name" : "Cube.000",
            "primitives" : [
                {
                    "attributes" : {
                        "POSITION" : 12,
                        "NORMAL" : 13,
                        "TEXCOORD_0" : 14
                    },
                    "indices" : 15,
                    "material" : 0
                }
            ]
        },
        {
            "name" : "Cube.028",
            "primitives" : [
                {
                    "attributes" : {
                        "POSITION" : 16,
                        "NORMAL" : 17,
                        "TEXCOORD_0" : 18
                    },
                    "indices" : 19,
                    "material" : 0
                }
            ]
        }
    ],
    "textures" : [
        {
            "sampler" : 0,
            "source" : 0
        }
    ],
    "images" : [
        {
            "bufferView" : 4,
            "mimeType" : "image/png",
            "name" : "Atlas"
        }
    ],
    "accessors" : [
        {
            "bufferView" : 0,
            "componentType" : 5126,
            "count" : 1142,
            "max" : [
                0.4949531555175781,
                0.675971508026123,
                0.6829228401184082
            ],
            "min" : [
                -0.4949530363082886,
                -0.6759714484214783,
                -0.6829228401184082
            ],
            "type" : "VEC3"
        },
        {
            "bufferView" : 1,
            "componentType" : 5126,
            "count" : 1142,
            "type" : "VEC3"
        },
        {
            "bufferView" : 2,
            "componentType" : 5126,
            "count" : 1142,
            "type" : "VEC2"
        },
        {
            "bufferView" : 3,
            "componentType" : 5123,
            "count" : 2892,
            "type" : "SCALAR"
        },
        {
            "bufferView" : 5,
            "componentType" : 5126,
            "count" : 1142,
            "max" : [
                0.4949530363082886,
                0.675971508026123,
                0.6829228401184082
            ],
            "min" : [
                -0.4949531555175781,
                -0.6759714484214783,
                -0.6829228401184082
            ],
            "type" : "VEC3"
        },
        {
            "bufferView" : 6,
            "componentType" : 5126,
            "count" : 1142,
            "type" : "VEC3"
        },
        {
            "bufferView" : 7,
            "componentType" : 5126,
            "count" : 1142,
            "type" : "VEC2"
        },
        {
            "bufferView" : 8,
            "componentType" : 5123,
            "count" : 2892,
            "type" : "SCALAR"
        },
        {
            "bufferView" : 9,
            "componentType" : 5126,
            "count" : 1142,
            "max" : [
                0.4949531555175781,
                0.675971508026123,
                0.6829228401184082
            ],
            "min" : [
                -0.4949530363082886,
                -0.6759714484214783,
                -0.6829228401184082
            ],
            "type" : "VEC3"
        },
        {
            "bufferView" : 10,
            "componentType" : 5126,
            "count" : 1142,
            "type" : "VEC3"
        },
        {
            "bufferView" : 11,
            "componentType" : 5126,
            "count" : 1142,
            "type" : "VEC2"
        },
        {
            "bufferView" : 12,
            "componentType" : 5123,
            "count" : 2892,
            "type" : "SCALAR"
        },
        {
            "bufferView" : 13,
            "componentType" : 5126,
            "count" : 1142,
            "max" : [
                0.4949530363082886,
                0.675971508026123,
                0.6829228401184082
            ],
            "min" : [
                -0.4949531555175781,
                -0.6759714484214783,
                -0.6829228401184082
            ],
            "type" : "VEC3"
        },
        {
            "bufferView" : 14,
            "componentType" : 5126,
            "count" : 1142,
            "type" : "VEC3"
        },
        {
            "bufferView" : 15,
            "componentType" : 5126,
            "count" : 1142,
            "type" : "VEC2"
        },
        {
            "bufferView" : 16,
            "componentType" : 5123,
            "count" : 2892,
            "type" : "SCALAR"
        },
        {
            "bufferView" : 17,
            "componentType" : 5126,
            "count" : 3408,
            "max" : [
                1.9752476215362549,
                5.018646240234375,
                1.8048909902572632
            ],
            "min" : [
                -1.9752476215362549,
                0.12826918065547943,
                -1.653985619544983
            ],
            "type" : "VEC3"
        },
        {
            "bufferView" : 18,
            "componentType" : 5126,
            "count" : 3408,
            "type" : "VEC3"
        },
        {
            "bufferView" : 19,
            "componentType" : 5126,
            "count" : 3408,
            "type" : "VEC2"
        },
        {
            "bufferView" : 20,
            "componentType" : 5123,
            "count" : 9588,
            "type" : "SCALAR"
        }
    ],
    "bufferViews" : [
        {
            "buffer" : 0,
            "byteLength" : 13704,
            "byteOffset" : 0
        },
        {
            "buffer" : 0,
            "byteLength" : 13704,
            "byteOffset" : 13704
        },
        {
            "buffer" : 0,
            "byteLength" : 9136,
            "byteOffset" : 27408
        },
        {
            "buffer" : 0,
            "byteLength" : 5784,
            "byteOffset" : 36544
        },
        {
            "buffer" : 0,
            "byteLength" : 3396,
            "byteOffset" : 42328
        },
        {
            "buffer" : 0,
            "byteLength" : 13704,
            "byteOffset" : 45724
        },
        {
            "buffer" : 0,
            "byteLength" : 13704,
            "byteOffset" : 59428
        },
        {
            "buffer" : 0,
            "byteLength" : 9136,
            "byteOffset" : 73132
        },
        {
            "buffer" : 0,
            "byteLength" : 5784,
            "byteOffset" : 82268
        },
        {
            "buffer" : 0,
            "byteLength" : 13704,
            "byteOffset" : 88052
        },
        {
            "buffer" : 0,
            "byteLength" : 13704,
            "byteOffset" : 101756
        },
        {
            "buffer" : 0,
            "byteLength" : 9136,
            "byteOffset" : 115460
        },
        {
            "buffer" : 0,
            "byteLength" : 5784,
            "byteOffset" : 124596
        },
        {
            "buffer" : 0,
            "byteLength" : 13704,
            "byteOffset" : 130380
        },
        {
            "buffer" : 0,
            "byteLength" : 13704,
            "byteOffset" : 144084
        },
        {
            "buffer" : 0,
            "byteLength" : 9136,
            "byteOffset" : 157788
        },
        {
            "buffer" : 0,
            "byteLength" : 5784,
            "byteOffset" : 166924
        },
        {
            "buffer" : 0,
            "byteLength" : 40896,
            "byteOffset" : 172708
        },
        {
            "buffer" : 0,
            "byteLength" : 40896,
            "byteOffset" : 213604
        },
        {
            "buffer" : 0,
            "byteLength" : 27264,
            "byteOffset" : 254500
        },
        {
            "buffer" : 0,
            "byteLength" : 19176,
            "byteOffset" : 281764
        }
    ],
    "samplers" : [
        {
            "magFilter" : 9729,
            "minFilter" : 9987
        }
    ],
    "buffers" : [
        {
            "byteLength" : 300940,
            "uri" : "data:application/octet-stream;base64,"
        }
    ]
}
