{
    "asset" : {
        "generator" : "Khronos glTF Blender I/O v1.5.17",
        "version" : "2.0"
    },
    "scene" : 0,
    "scenes" : [
        {
            "name" : "Scene",
            "nodes" : [
                0
            ]
        }
    ],
    "nodes" : [
        {
            "mesh" : 0,
            "name" : "sword_teamYellow",
            "rotation" : [
                0.7071068286895752,
                0,
                0,
                0.7071067094802856
            ]
        }
    ],
    "materials" : [
        {
            "doubleSided" : true,
            "name" : "Yellow.034",
            "pbrMetallicRoughness" : {
                "baseColorFactor" : [
                    0.5189464688301086,
                    0.4865533709526062,
                    0.5670107007026672,
                    1
                ],
                "roughnessFactor" : 0.08636363595724106
            }
        },
        {
            "doubleSided" : true,
            "name" : "Metal.045",
            "pbrMetallicRoughness" : {
                "baseColorFactor" : [
                    0.40126433968544006,
                    0.47849249839782715,
                    0.5173344612121582,
                    1
                ],
                "metallicFactor" : 0.20000000298023224,
                "roughnessFactor" : 0.30000001192092896
            }
        }
    ],
    "meshes" : [
        {
            "name" : "Cube.1392",
            "primitives" : [
                {
                    "attributes" : {
                        "POSITION" : 0,
                        "NORMAL" : 1,
                        "TEXCOORD_0" : 2
                    },
                    "indices" : 3,
                    "material" : 0
                },
                {
                    "attributes" : {
                        "POSITION" : 4,
                        "NORMAL" : 5,
                        "TEXCOORD_0" : 6
                    },
                    "indices" : 7,
                    "material" : 1
                }
            ]
        }
    ],
    "accessors" : [
        {
            "bufferView" : 0,
            "componentType" : 5126,
            "count" : 112,
            "max" : [
                0.18656489253044128,
                0.0588654987514019,
                -0.20000003278255463
            ],
            "min" : [
                -0.1865646094083786,
                -0.05886499211192131,
                -1.1661818027496338
            ],
            "type" : "VEC3"
        },
        {
            "bufferView" : 1,
            "componentType" : 5126,
            "count" : 112,
            "type" : "VEC3"
        },
        {
            "bufferView" : 2,
            "componentType" : 5126,
            "count" : 112,
            "type" : "VEC2"
        },
        {
            "bufferView" : 3,
            "componentType" : 5123,
            "count" : 426,
            "type" : "SCALAR"
        },
        {
            "bufferView" : 4,
            "componentType" : 5126,
            "count" : 296,
            "max" : [
                0.21344424784183502,
                0.09197471290826797,
                0.2038034349679947
            ],
            "min" : [
                -0.21346722543239594,
                -0.0919746682047844,
                -0.26237180829048157
            ],
            "type" : "VEC3"
        },
        {
            "bufferView" : 5,
            "componentType" : 5126,
            "count" : 296,
            "type" : "VEC3"
        },
        {
            "bufferView" : 6,
            "componentType" : 5126,
            "count" : 296,
            "type" : "VEC2"
        },
        {
            "bufferView" : 7,
            "componentType" : 5123,
            "count" : 1170,
            "type" : "SCALAR"
        }
    ],
    "bufferViews" : [
        {
            "buffer" : 0,
            "byteLength" : 1344,
            "byteOffset" : 0
        },
        {
            "buffer" : 0,
            "byteLength" : 1344,
            "byteOffset" : 1344
        },
        {
            "buffer" : 0,
            "byteLength" : 896,
            "byteOffset" : 2688
        },
        {
            "buffer" : 0,
            "byteLength" : 852,
            "byteOffset" : 3584
        },
        {
            "buffer" : 0,
            "byteLength" : 3552,
            "byteOffset" : 4436
        },
        {
            "buffer" : 0,
            "byteLength" : 3552,
            "byteOffset" : 7988
        },
        {
            "buffer" : 0,
            "byteLength" : 2368,
            "byteOffset" : 11540
        },
        {
            "buffer" : 0,
            "byteLength" : 2340,
            "byteOffset" : 13908
        }
    ],
    "buffers" : [
        {
            "byteLength" : 16248,
            "uri" : "data:application/octet-stream;base64,"
        }
    ]
}
